<svg width="54" height="54" viewBox="0 0 54 54" fill="none" xmlns="http://www.w3.org/2000/svg">
<rect x="1" y="1" width="52" height="52" rx="9" fill="white" stroke="#123E4F" stroke-width="2"/>
<path d="M28.7015 27.4974L38.5381 17.6763C38.8322 17.3823 38.9973 16.9835 38.9973 16.5678C38.9973 16.152 38.8322 15.7532 38.5381 15.4592C38.2441 15.1652 37.8454 15 37.4296 15C37.0138 15 36.615 15.1652 36.321 15.4592L26.5 25.2958L16.679 15.4592C16.385 15.1652 15.9862 15 15.5704 15C15.1546 15 14.7559 15.1652 14.4619 15.4592C14.1678 15.7532 14.0027 16.152 14.0027 16.5678C14.0027 16.9835 14.1678 17.3823 14.4619 17.6763L24.2985 27.4974L14.4619 37.3184C14.3155 37.4636 14.1994 37.6363 14.1201 37.8265C14.0408 38.0168 14 38.2209 14 38.427C14 38.6331 14.0408 38.8371 14.1201 39.0275C14.1994 39.2176 14.3155 39.3903 14.4619 39.5355C14.607 39.6818 14.7797 39.798 14.97 39.8773C15.1602 39.9566 15.3643 39.9974 15.5704 39.9974C15.7765 39.9974 15.9806 39.9566 16.1709 39.8773C16.3612 39.798 16.5339 39.6818 16.679 39.5355L26.5 29.6989L36.321 39.5355C36.4662 39.6818 36.6389 39.798 36.8292 39.8773C37.0194 39.9566 37.2235 39.9974 37.4296 39.9974C37.6358 39.9974 37.8399 39.9566 38.0301 39.8773C38.2204 39.798 38.3931 39.6818 38.5381 39.5355C38.6846 39.3903 38.8008 39.2176 38.8799 39.0275C38.9593 38.8371 39 38.6331 39 38.427C39 38.2209 38.9593 38.0168 38.8799 37.8265C38.8008 37.6363 38.6846 37.4636 38.5381 37.3184L28.7015 27.4974Z" fill="#123E4F"/>
</svg>
