<svg width="50" height="50" viewBox="0 0 50 50" fill="none" xmlns="http://www.w3.org/2000/svg">
<rect width="50" height="50" rx="8" fill="#123E4F"/>
<path d="M12 17.5625C12 17.1481 12.1646 16.7507 12.4576 16.4576C12.7507 16.1646 13.1481 16 13.5625 16H35.4375C35.8519 16 36.2493 16.1646 36.5424 16.4576C36.8354 16.7507 37 17.1481 37 17.5625C37 17.9769 36.8354 18.3743 36.5424 18.6674C36.2493 18.9604 35.8519 19.125 35.4375 19.125H13.5625C13.1481 19.125 12.7507 18.9604 12.4576 18.6674C12.1646 18.3743 12 17.9769 12 17.5625ZM12 25.375C12 24.9606 12.1646 24.5632 12.4576 24.2701C12.7507 23.9771 13.1481 23.8125 13.5625 23.8125H35.4375C35.8519 23.8125 36.2493 23.9771 36.5424 24.2701C36.8354 24.5632 37 24.9606 37 25.375C37 25.7894 36.8354 26.1868 36.5424 26.4799C36.2493 26.7729 35.8519 26.9375 35.4375 26.9375H13.5625C13.1481 26.9375 12.7507 26.7729 12.4576 26.4799C12.1646 26.1868 12 25.7894 12 25.375ZM12 33.1875C12 32.7731 12.1646 32.3757 12.4576 32.0826C12.7507 31.7896 13.1481 31.625 13.5625 31.625H35.4375C35.8519 31.625 36.2493 31.7896 36.5424 32.0826C36.8354 32.3757 37 32.7731 37 33.1875C37 33.6019 36.8354 33.9993 36.5424 34.2924C36.2493 34.5854 35.8519 34.75 35.4375 34.75H13.5625C13.1481 34.75 12.7507 34.5854 12.4576 34.2924C12.1646 33.9993 12 33.6019 12 33.1875Z" fill="white"/>
</svg>
